{
	"patcher" : 	{
		"fileversion" : 1,
		"appversion" : 		{
			"major" : 8,
			"minor" : 1,
			"revision" : 11,
			"architecture" : "x64",
			"modernui" : 1
		}
,
		"classnamespace" : "box",
		"rect" : [ 59.0, 106.0, 178.0, 106.0 ],
		"bglocked" : 0,
		"openinpresentation" : 1,
		"default_fontsize" : 12.0,
		"default_fontface" : 0,
		"default_fontname" : "Arial",
		"gridonopen" : 1,
		"gridsize" : [ 15.0, 15.0 ],
		"gridsnaponopen" : 1,
		"objectsnaponopen" : 1,
		"statusbarvisible" : 2,
		"toolbarvisible" : 0,
		"lefttoolbarpinned" : 0,
		"toptoolbarpinned" : 0,
		"righttoolbarpinned" : 0,
		"bottomtoolbarpinned" : 0,
		"toolbars_unpinned_last_save" : 0,
		"tallnewobj" : 0,
		"boxanimatetime" : 200,
		"enablehscroll" : 0,
		"enablevscroll" : 0,
		"devicewidth" : 0.0,
		"description" : "",
		"digest" : "",
		"tags" : "",
		"style" : "",
		"subpatcher_template" : "",
		"assistshowspatchername" : 0,
		"boxes" : [ 			{
				"box" : 				{
					"id" : "obj-9",
					"maxclass" : "newobj",
					"numinlets" : 1,
					"numoutlets" : 1,
					"outlettype" : [ "" ],
					"patching_rect" : [ 165.0, 173.0, 45.0, 22.0 ],
					"text" : "mtof 0."
				}

			}
, 			{
				"box" : 				{
					"bgmode" : 0,
					"border" : 0,
					"clickthrough" : 0,
					"enablehscroll" : 0,
					"enablevscroll" : 0,
					"id" : "obj-200",
					"lockeddragscroll" : 0,
					"maxclass" : "bpatcher",
					"name" : "f2NoteName.maxpat",
					"numinlets" : 1,
					"numoutlets" : 0,
					"offset" : [ 0.0, 0.0 ],
					"patching_rect" : [ 165.0, 222.992250680923462, 152.5, 42.0 ],
					"presentation" : 1,
					"presentation_rect" : [ 10.75, 57.0, 152.5, 42.0 ],
					"viewvisibility" : 1
				}

			}
, 			{
				"box" : 				{
					"id" : "obj-5",
					"maxclass" : "comment",
					"numinlets" : 1,
					"numoutlets" : 0,
					"patching_rect" : [ 217.0, 34.0, 159.0, 20.0 ],
					"presentation" : 1,
					"presentation_rect" : [ 6.75, 8.0, 105.0, 20.0 ],
					"style" : "default",
					"text" : "Input Frequency"
				}

			}
, 			{
				"box" : 				{
					"bgcolor" : [ 0.349019607843137, 0.349019607843137, 0.349019607843137, 1.0 ],
					"bgfillcolor_angle" : 270.0,
					"bgfillcolor_autogradient" : 0.0,
					"bgfillcolor_color" : [ 0.349019607843137, 0.349019607843137, 0.349019607843137, 1.0 ],
					"bgfillcolor_color1" : [ 0.336847841739655, 0.327923655509949, 0.37141627073288, 1.0 ],
					"bgfillcolor_color2" : [ 0.2, 0.2, 0.2, 1.0 ],
					"bgfillcolor_proportion" : 0.5,
					"bgfillcolor_type" : "color",
					"color" : [ 0.448448061943054, 0.509629547595978, 0.51268458366394, 1.0 ],
					"elementcolor" : [ 0.448448061943054, 0.509629547595978, 0.51268458366394, 1.0 ],
					"id" : "obj-120",
					"items" : [ "none", ",", "cents", ",", "quarter", ",", "semi", ",", "tone" ],
					"maxclass" : "umenu",
					"numinlets" : 1,
					"numoutlets" : 3,
					"outlettype" : [ "int", "", "" ],
					"parameter_enable" : 1,
					"patching_rect" : [ 262.0, 84.0, 100.0, 22.0 ],
					"presentation" : 1,
					"presentation_rect" : [ 105.75, 33.0, 64.0, 22.0 ],
					"saved_attribute_attributes" : 					{
						"valueof" : 						{
							"parameter_enum" : [ "none", "cents", "quarter", "semi", "tone" ],
							"parameter_initial" : [ 2 ],
							"parameter_initial_enable" : 1,
							"parameter_longname" : "umenu[1]",
							"parameter_mmax" : 4,
							"parameter_shortname" : "umenu",
							"parameter_type" : 2
						}

					}
,
					"style" : "default",
					"textcolor" : [ 0.968627450980392, 0.968627450980392, 0.968627450980392, 1.0 ],
					"varname" : "umenu[1]"
				}

			}
, 			{
				"box" : 				{
					"id" : "obj-121",
					"maxclass" : "comment",
					"numinlets" : 1,
					"numoutlets" : 0,
					"patching_rect" : [ 364.0, 84.0, 159.0, 20.0 ],
					"presentation" : 1,
					"presentation_rect" : [ 6.75, 33.0, 105.0, 20.0 ],
					"style" : "default",
					"text" : "Freq, Rounding"
				}

			}
, 			{
				"box" : 				{
					"id" : "obj-6",
					"items" : [ 0.00001, ",", 0.01, ",", 0.5, ",", 1, ",", 2 ],
					"maxclass" : "umenu",
					"numinlets" : 1,
					"numoutlets" : 3,
					"outlettype" : [ "int", "", "" ],
					"parameter_enable" : 0,
					"patching_rect" : [ 238.0, 128.5, 100.0, 22.0 ]
				}

			}
, 			{
				"box" : 				{
					"id" : "obj-4",
					"maxclass" : "newobj",
					"numinlets" : 2,
					"numoutlets" : 1,
					"outlettype" : [ "" ],
					"patching_rect" : [ 165.0, 128.5, 59.0, 22.0 ],
					"text" : "round 0.5"
				}

			}
, 			{
				"box" : 				{
					"id" : "obj-3",
					"maxclass" : "newobj",
					"numinlets" : 1,
					"numoutlets" : 1,
					"outlettype" : [ "" ],
					"patching_rect" : [ 165.0, 96.0, 45.0, 22.0 ],
					"text" : "ftom 0."
				}

			}
, 			{
				"box" : 				{
					"bgcolor" : [ 0.349019607843137, 0.349019607843137, 0.349019607843137, 1.0 ],
					"format" : 6,
					"id" : "obj-2",
					"maxclass" : "flonum",
					"numinlets" : 1,
					"numoutlets" : 2,
					"outlettype" : [ "", "bang" ],
					"parameter_enable" : 0,
					"patching_rect" : [ 165.0, 34.0, 50.0, 22.0 ],
					"presentation" : 1,
					"presentation_rect" : [ 105.75, 8.0, 64.0, 22.0 ]
				}

			}
, 			{
				"box" : 				{
					"angle" : 270.0,
					"bgcolor" : [ 0.448448061943054, 0.509629547595978, 0.51268458366394, 1.0 ],
					"id" : "obj-1",
					"maxclass" : "panel",
					"mode" : 0,
					"numinlets" : 1,
					"numoutlets" : 0,
					"patching_rect" : [ 140.0, 171.0, 128.0, 128.0 ],
					"presentation" : 1,
					"presentation_rect" : [ 1.0, 2.0, 176.0, 102.0 ],
					"proportion" : 0.5
				}

			}
 ],
		"lines" : [ 			{
				"patchline" : 				{
					"destination" : [ "obj-6", 0 ],
					"source" : [ "obj-120", 0 ]
				}

			}
, 			{
				"patchline" : 				{
					"destination" : [ "obj-3", 0 ],
					"source" : [ "obj-2", 0 ]
				}

			}
, 			{
				"patchline" : 				{
					"destination" : [ "obj-4", 0 ],
					"source" : [ "obj-3", 0 ]
				}

			}
, 			{
				"patchline" : 				{
					"destination" : [ "obj-9", 0 ],
					"source" : [ "obj-4", 0 ]
				}

			}
, 			{
				"patchline" : 				{
					"destination" : [ "obj-4", 1 ],
					"source" : [ "obj-6", 1 ]
				}

			}
, 			{
				"patchline" : 				{
					"destination" : [ "obj-200", 0 ],
					"source" : [ "obj-9", 0 ]
				}

			}
 ],
		"parameters" : 		{
			"obj-120" : [ "umenu[1]", "umenu", 0 ],
			"parameterbanks" : 			{

			}
,
			"inherited_shortname" : 1
		}
,
		"dependency_cache" : [ 			{
				"name" : "f2NoteName.maxpat",
				"bootpath" : "~/Documents/AugmentedVocalityMiscTools/Freq2MidiNote",
				"patcherrelativepath" : ".",
				"type" : "JSON",
				"implicit" : 1
			}
 ],
		"autosave" : 0
	}

}
